# xmcd CD database file
#
# Track frame offsets:
#	150
#	27108
#	44264
#	76198
#	88238
#	119061
#	130832
#
# Disc length: 2322 seconds
#
# Revision: 0
# Processed by: cddbd v1.5.2PL0 Copyright (c) Steve Scherf et al.
# Submitted via: CDex 1.51
#
DISCID=55091007
DTITLE=Henryk Miskiewicz - Altissimonica
DYEAR=2004
DGENRE=Jazz
TTITLE0=Part I
TTITLE1=Interlude
TTITLE2=Part II
TTITLE3=Interlude (Oberek)
TTITLE4=Part III
TTITLE5=Interlude
TTITLE6=Part IV
EXTD=YEAR: 2004
EXTT0=
EXTT1=
EXTT2=
EXTT3=
EXTT4=
EXTT5=
EXTT6=
PLAYORDER=
